<svg xmlns="http://www.w3.org/2000/svg" viewBox="0 0 340 125" width="100%" style="font-family: 'Liberation Sans', Arial, sans-serif;">
<rect width="340" height="125" rx="4" fill="#FFFFFF" stroke="#E2E8F0" stroke-width="0.8"/>
<line x1="85.0" y1="14" x2="85.0" y2="109" stroke="#F1F5F9" stroke-width="0.8" stroke-dasharray="2,2"/>
<text x="85.0" y="120" font-size="5.5" fill="#94A3B8" text-anchor="middle">0</text>
<line x1="136.75" y1="14" x2="136.75" y2="109" stroke="#F1F5F9" stroke-width="0.8" stroke-dasharray="2,2"/>
<text x="136.75" y="120" font-size="5.5" fill="#94A3B8" text-anchor="middle">50</text>
<line x1="188.5" y1="14" x2="188.5" y2="109" stroke="#F1F5F9" stroke-width="0.8" stroke-dasharray="2,2"/>
<text x="188.5" y="120" font-size="5.5" fill="#94A3B8" text-anchor="middle">100</text>
<line x1="240.25" y1="14" x2="240.25" y2="109" stroke="#F1F5F9" stroke-width="0.8" stroke-dasharray="2,2"/>
<text x="240.25" y="120" font-size="5.5" fill="#94A3B8" text-anchor="middle">150</text>
<line x1="292.0" y1="14" x2="292.0" y2="109" stroke="#F1F5F9" stroke-width="0.8" stroke-dasharray="2,2"/>
<text x="292.0" y="120" font-size="5.5" fill="#94A3B8" text-anchor="middle">200</text>
<line x1="85" y1="14" x2="85" y2="109" stroke="#CBD5E1" stroke-width="1"/>
<text x="79" y="26.25" font-size="6.5" fill="#334155" text-anchor="end">Wajok Hulu</text>
<rect x="85" y="18.25" width="132.3144" height="10.5" rx="2.5" fill="#0284C7"/>
<text x="220.8144" y="26.25" font-size="6.5" font-weight="bold" fill="#0F172A">127,84</text>
<text x="79" y="45.25" font-size="6.5" fill="#334155" text-anchor="end">Wajok Hilir</text>
<rect x="85" y="37.25" width="75.00645" height="10.5" rx="2.5" fill="#0284C7"/>
<text x="163.50645" y="45.25" font-size="6.5" font-weight="bold" fill="#0F172A">72,47</text>
<text x="79" y="64.25" font-size="6.5" fill="#334155" text-anchor="end">Jungkat</text>
<rect x="85" y="56.25" width="44.90865" height="10.5" rx="2.5" fill="#0284C7"/>
<text x="133.40865" y="64.25" font-size="6.5" font-weight="bold" fill="#0F172A">43,39</text>
<text x="79" y="83.25" font-size="6.5" fill="#334155" text-anchor="end">Peniti Luar</text>
<rect x="85" y="75.25" width="36.463049999999996" height="10.5" rx="2.5" fill="#0284C7"/>
<text x="124.96305" y="83.25" font-size="6.5" font-weight="bold" fill="#0F172A">35,23</text>
<text x="79" y="102.25" font-size="6.5" fill="#334155" text-anchor="end">Sungai Nipah</text>
<rect x="85" y="94.25" width="12.42" height="10.5" rx="2.5" fill="#0284C7"/>
<text x="100.92" y="102.25" font-size="6.5" font-weight="bold" fill="#0F172A">12</text>
</svg>