<svg xmlns="http://www.w3.org/2000/svg" viewBox="0 0 340 125" width="100%" style="font-family: 'Liberation Sans', Arial, sans-serif;">
<rect width="340" height="125" rx="4" fill="#FFFFFF" stroke="#E2E8F0" stroke-width="0.8"/>
<line x1="85.0" y1="14" x2="85.0" y2="109" stroke="#F1F5F9" stroke-width="0.8" stroke-dasharray="2,2"/>
<text x="85.0" y="120" font-size="5.5" fill="#94A3B8" text-anchor="middle">0</text>
<line x1="136.75" y1="14" x2="136.75" y2="109" stroke="#F1F5F9" stroke-width="0.8" stroke-dasharray="2,2"/>
<text x="136.75" y="120" font-size="5.5" fill="#94A3B8" text-anchor="middle">7</text>
<line x1="188.5" y1="14" x2="188.5" y2="109" stroke="#F1F5F9" stroke-width="0.8" stroke-dasharray="2,2"/>
<text x="188.5" y="120" font-size="5.5" fill="#94A3B8" text-anchor="middle">15</text>
<line x1="240.25" y1="14" x2="240.25" y2="109" stroke="#F1F5F9" stroke-width="0.8" stroke-dasharray="2,2"/>
<text x="240.25" y="120" font-size="5.5" fill="#94A3B8" text-anchor="middle">22</text>
<line x1="292.0" y1="14" x2="292.0" y2="109" stroke="#F1F5F9" stroke-width="0.8" stroke-dasharray="2,2"/>
<text x="292.0" y="120" font-size="5.5" fill="#94A3B8" text-anchor="middle">30</text>
<line x1="85" y1="14" x2="85" y2="109" stroke="#CBD5E1" stroke-width="1"/>
<text x="79" y="26.25" font-size="6.5" fill="#334155" text-anchor="end">Anjungan Melancar</text>
<rect x="85" y="18.25" width="158.70000000000002" height="10.5" rx="2.5" fill="#0284C7"/>
<text x="247.20000000000002" y="26.25" font-size="6.5" font-weight="bold" fill="#0F172A">23</text>
<text x="79" y="45.25" font-size="6.5" fill="#334155" text-anchor="end">Kepayang</text>
<rect x="85" y="37.25" width="124.19999999999999" height="10.5" rx="2.5" fill="#0284C7"/>
<text x="212.7" y="45.25" font-size="6.5" font-weight="bold" fill="#0F172A">18</text>
<text x="79" y="64.25" font-size="6.5" fill="#334155" text-anchor="end">Dema</text>
<rect x="85" y="56.25" width="82.80000000000001" height="10.5" rx="2.5" fill="#0284C7"/>
<text x="171.3" y="64.25" font-size="6.5" font-weight="bold" fill="#0F172A">12</text>
<text x="79" y="83.25" font-size="6.5" fill="#334155" text-anchor="end">Anjungan Dalam</text>
<rect x="85" y="75.25" width="75.89999999999999" height="10.5" rx="2.5" fill="#0284C7"/>
<text x="164.39999999999998" y="83.25" font-size="6.5" font-weight="bold" fill="#0F172A">11</text>
<text x="79" y="102.25" font-size="6.5" fill="#334155" text-anchor="end">Pak Bulu</text>
<rect x="85" y="94.25" width="55.199999999999996" height="10.5" rx="2.5" fill="#0284C7"/>
<text x="143.7" y="102.25" font-size="6.5" font-weight="bold" fill="#0F172A">8</text>
</svg>