<svg xmlns="http://www.w3.org/2000/svg" viewBox="0 0 340 150" width="100%" height="150pt" style="font-family: 'Liberation Sans', Arial, sans-serif;">
<rect width="340" height="150" fill="#FAFAFA" rx="4"/>
<line x1="100.0" y1="18" x2="100.0" y2="132" stroke="#F1F5F9" stroke-width="0.8" stroke-dasharray="2,2"/>
<text x="100.0" y="145" font-size="5.5" fill="#94A3B8" text-anchor="middle">0</text>
<line x1="148.75" y1="18" x2="148.75" y2="132" stroke="#F1F5F9" stroke-width="0.8" stroke-dasharray="2,2"/>
<text x="148.75" y="145" font-size="5.5" fill="#94A3B8" text-anchor="middle">35</text>
<line x1="197.5" y1="18" x2="197.5" y2="132" stroke="#F1F5F9" stroke-width="0.8" stroke-dasharray="2,2"/>
<text x="197.5" y="145" font-size="5.5" fill="#94A3B8" text-anchor="middle">70</text>
<line x1="246.25" y1="18" x2="246.25" y2="132" stroke="#F1F5F9" stroke-width="0.8" stroke-dasharray="2,2"/>
<text x="246.25" y="145" font-size="5.5" fill="#94A3B8" text-anchor="middle">106</text>
<line x1="295.0" y1="18" x2="295.0" y2="132" stroke="#F1F5F9" stroke-width="0.8" stroke-dasharray="2,2"/>
<text x="295.0" y="145" font-size="5.5" fill="#94A3B8" text-anchor="middle">141</text>
<line x1="100" y1="18" x2="100" y2="132" stroke="#CBD5E1" stroke-width="1"/>
<text x="94" y="30.5" font-size="6.5" fill="#334155" text-anchor="end">Peniti Dalam I</text>
<rect x="100" y="22" width="169.56521739130434" height="11" rx="2" fill="#0284C7"/>
<text x="273.5652173913044" y="30.5" font-size="6" font-weight="bold" fill="#1E293B">123,29 km²</text>
<text x="94" y="49.5" font-size="6.5" fill="#334155" text-anchor="end">Peniti Dalam Ii</text>
<rect x="100" y="41" width="77.5552162275582" height="11" rx="2" fill="#0284C7"/>
<text x="181.55521622755822" y="49.5" font-size="6" font-weight="bold" fill="#1E293B">56,39 km²</text>
<text x="94" y="68.5" font-size="6.5" fill="#334155" text-anchor="end">Peniti Besar</text>
<rect x="100" y="60" width="65.65855688426367" height="11" rx="2" fill="#0284C7"/>
<text x="169.65855688426367" y="68.5" font-size="6" font-weight="bold" fill="#1E293B">47,74 km²</text>
<text x="94" y="87.5" font-size="6.5" fill="#334155" text-anchor="end">Sungai Purun Besar</text>
<rect x="100" y="79" width="39.527166419223676" height="11" rx="2" fill="#0284C7"/>
<text x="143.52716641922368" y="87.5" font-size="6" font-weight="bold" fill="#1E293B">28,74 km²</text>
<text x="94" y="106.5" font-size="6.5" fill="#334155" text-anchor="end">Sungai Burung</text>
<rect x="100" y="98" width="13.945910490289773" height="11" rx="2" fill="#0284C7"/>
<text x="117.94591049028978" y="106.5" font-size="6" font-weight="bold" fill="#1E293B">10,14 km²</text>
<text x="94" y="125.5" font-size="6.5" fill="#334155" text-anchor="end">Parit Bugis</text>
<rect x="100" y="117" width="9.847408196299288" height="11" rx="2" fill="#0284C7"/>
<text x="113.84740819629928" y="125.5" font-size="6" font-weight="bold" fill="#1E293B">7,16 km²</text>
</svg>