<svg xmlns="http://www.w3.org/2000/svg" viewBox="0 0 340 207" width="100%" height="207pt" style="font-family: 'Liberation Sans', Arial, sans-serif;">
<rect width="340" height="207" fill="#FAFAFA" rx="4"/>
<line x1="100.0" y1="18" x2="100.0" y2="189" stroke="#F1F5F9" stroke-width="0.8" stroke-dasharray="2,2"/>
<text x="100.0" y="202" font-size="5.5" fill="#94A3B8" text-anchor="middle">0</text>
<line x1="148.75" y1="18" x2="148.75" y2="189" stroke="#F1F5F9" stroke-width="0.8" stroke-dasharray="2,2"/>
<text x="148.75" y="202" font-size="5.5" fill="#94A3B8" text-anchor="middle">11</text>
<line x1="197.5" y1="18" x2="197.5" y2="189" stroke="#F1F5F9" stroke-width="0.8" stroke-dasharray="2,2"/>
<text x="197.5" y="202" font-size="5.5" fill="#94A3B8" text-anchor="middle">22</text>
<line x1="246.25" y1="18" x2="246.25" y2="189" stroke="#F1F5F9" stroke-width="0.8" stroke-dasharray="2,2"/>
<text x="246.25" y="202" font-size="5.5" fill="#94A3B8" text-anchor="middle">34</text>
<line x1="295.0" y1="18" x2="295.0" y2="189" stroke="#F1F5F9" stroke-width="0.8" stroke-dasharray="2,2"/>
<text x="295.0" y="202" font-size="5.5" fill="#94A3B8" text-anchor="middle">45</text>
<line x1="100" y1="18" x2="100" y2="189" stroke="#CBD5E1" stroke-width="1"/>
<text x="94" y="30.5" font-size="6.5" fill="#334155" text-anchor="end">Sungai Purun Kecil</text>
<rect x="100" y="22" width="169.56521739130437" height="11" rx="2" fill="#0284C7"/>
<text x="273.5652173913044" y="30.5" font-size="6" font-weight="bold" fill="#1E293B">39,50 km²</text>
<text x="94" y="49.5" font-size="6.5" fill="#334155" text-anchor="end">Nusapati</text>
<rect x="100" y="41" width="101.6103467253715" height="11" rx="2" fill="#0284C7"/>
<text x="205.6103467253715" y="49.5" font-size="6" font-weight="bold" fill="#1E293B">23,67 km²</text>
<text x="94" y="68.5" font-size="6.5" fill="#334155" text-anchor="end">Sungai Bakau Besar Darat</text>
<rect x="100" y="60" width="100.8376444689048" height="11" rx="2" fill="#0284C7"/>
<text x="204.83764446890478" y="68.5" font-size="6" font-weight="bold" fill="#1E293B">23,49 km²</text>
<text x="94" y="87.5" font-size="6.5" fill="#334155" text-anchor="end">Sungai Rasau</text>
<rect x="100" y="79" width="98.60539350577875" height="11" rx="2" fill="#0284C7"/>
<text x="202.60539350577875" y="87.5" font-size="6" font-weight="bold" fill="#1E293B">22,97 km²</text>
<text x="94" y="106.5" font-size="6.5" fill="#334155" text-anchor="end">Peniraman</text>
<rect x="100" y="98" width="97.78976334617504" height="11" rx="2" fill="#0284C7"/>
<text x="201.78976334617505" y="106.5" font-size="6" font-weight="bold" fill="#1E293B">22,78 km²</text>
<text x="94" y="125.5" font-size="6.5" fill="#334155" text-anchor="end">Galang</text>
<rect x="100" y="117" width="71.13153549807376" height="11" rx="2" fill="#0284C7"/>
<text x="175.13153549807376" y="125.5" font-size="6" font-weight="bold" fill="#1E293B">16,57 km²</text>
<text x="94" y="144.5" font-size="6.5" fill="#334155" text-anchor="end">Sungai Pinyuh</text>
<rect x="100" y="136" width="34.81452944413869" height="11" rx="2" fill="#0284C7"/>
<text x="138.81452944413869" y="144.5" font-size="6" font-weight="bold" fill="#1E293B">8,11 km²</text>
<text x="94" y="163.5" font-size="6.5" fill="#334155" text-anchor="end">Sungai Bakau Besar Laut</text>
<rect x="100" y="155" width="30.178315905338472" height="11" rx="2" fill="#0284C7"/>
<text x="134.17831590533848" y="163.5" font-size="6" font-weight="bold" fill="#1E293B">7,03 km²</text>
<text x="94" y="182.5" font-size="6.5" fill="#334155" text-anchor="end">Sungai Batang</text>
<rect x="100" y="174" width="30.092460099064393" height="11" rx="2" fill="#0284C7"/>
<text x="134.0924600990644" y="182.5" font-size="6" font-weight="bold" fill="#1E293B">7,01 km²</text>
</svg>