<svg xmlns="http://www.w3.org/2000/svg" viewBox="0 0 340 264" width="100%" height="264pt" style="font-family: 'Liberation Sans', Arial, sans-serif;">
<rect width="340" height="264" fill="#FAFAFA" rx="4"/>
<line x1="100.0" y1="18" x2="100.0" y2="246" stroke="#F1F5F9" stroke-width="0.8" stroke-dasharray="2,2"/>
<text x="100.0" y="259" font-size="5.5" fill="#94A3B8" text-anchor="middle">0</text>
<line x1="148.75" y1="18" x2="148.75" y2="246" stroke="#F1F5F9" stroke-width="0.8" stroke-dasharray="2,2"/>
<text x="148.75" y="259" font-size="5.5" fill="#94A3B8" text-anchor="middle">3</text>
<line x1="197.5" y1="18" x2="197.5" y2="246" stroke="#F1F5F9" stroke-width="0.8" stroke-dasharray="2,2"/>
<text x="197.5" y="259" font-size="5.5" fill="#94A3B8" text-anchor="middle">6</text>
<line x1="246.25" y1="18" x2="246.25" y2="246" stroke="#F1F5F9" stroke-width="0.8" stroke-dasharray="2,2"/>
<text x="246.25" y="259" font-size="5.5" fill="#94A3B8" text-anchor="middle">10</text>
<line x1="295.0" y1="18" x2="295.0" y2="246" stroke="#F1F5F9" stroke-width="0.8" stroke-dasharray="2,2"/>
<text x="295.0" y="259" font-size="5.5" fill="#94A3B8" text-anchor="middle">13</text>
<line x1="100" y1="18" x2="100" y2="246" stroke="#CBD5E1" stroke-width="1"/>
<text x="94" y="30.5" font-size="6.5" fill="#334155" text-anchor="end">Semparong Parit Raden</text>
<rect x="100" y="22" width="169.56521739130437" height="11" rx="2" fill="#F5A623"/>
<text x="273.5652173913044" y="30.5" font-size="6" font-weight="bold" fill="#1E293B">12 km</text>
<text x="94" y="49.5" font-size="6.5" fill="#334155" text-anchor="end">Bukit Batu</text>
<rect x="100" y="41" width="107.3913043478261" height="11" rx="2" fill="#F5A623"/>
<text x="211.3913043478261" y="49.5" font-size="6" font-weight="bold" fill="#1E293B">7,60 km</text>
<text x="94" y="68.5" font-size="6.5" fill="#334155" text-anchor="end">Sungai Duri I</text>
<rect x="100" y="60" width="90.43478260869567" height="11" rx="2" fill="#F5A623"/>
<text x="194.43478260869568" y="68.5" font-size="6" font-weight="bold" fill="#1E293B">6,40 km</text>
<text x="94" y="87.5" font-size="6.5" fill="#334155" text-anchor="end">Semudun</text>
<rect x="100" y="79" width="87.60869565217392" height="11" rx="2" fill="#F5A623"/>
<text x="191.60869565217394" y="87.5" font-size="6" font-weight="bold" fill="#1E293B">6,20 km</text>
<text x="94" y="106.5" font-size="6.5" fill="#334155" text-anchor="end">Sungai Kunyit Hulu</text>
<rect x="100" y="98" width="79.1304347826087" height="11" rx="2" fill="#F5A623"/>
<text x="183.1304347826087" y="106.5" font-size="6" font-weight="bold" fill="#1E293B">5,60 km</text>
<text x="94" y="125.5" font-size="6.5" fill="#334155" text-anchor="end">Mendalok</text>
<rect x="100" y="117" width="72.06521739130434" height="11" rx="2" fill="#F5A623"/>
<text x="176.06521739130434" y="125.5" font-size="6" font-weight="bold" fill="#1E293B">5,10 km</text>
<text x="94" y="144.5" font-size="6.5" fill="#334155" text-anchor="end">Sungai Duri II</text>
<rect x="100" y="136" width="53.69565217391305" height="11" rx="2" fill="#F5A623"/>
<text x="157.69565217391306" y="144.5" font-size="6" font-weight="bold" fill="#1E293B">3,80 km</text>
<text x="94" y="163.5" font-size="6.5" fill="#334155" text-anchor="end">Sungai Dungun</text>
<rect x="100" y="155" width="45.217391304347835" height="11" rx="2" fill="#F5A623"/>
<text x="149.21739130434784" y="163.5" font-size="6" font-weight="bold" fill="#1E293B">3,20 km</text>
<text x="94" y="182.5" font-size="6.5" fill="#334155" text-anchor="end">Sungai Kunyit Dalam</text>
<rect x="100" y="174" width="42.39130434782609" height="11" rx="2" fill="#F5A623"/>
<text x="146.3913043478261" y="182.5" font-size="6" font-weight="bold" fill="#1E293B">3 km</text>
<text x="94" y="201.5" font-size="6.5" fill="#334155" text-anchor="end">Sungai Bundung Laut</text>
<rect x="100" y="193" width="38.152173913043484" height="11" rx="2" fill="#F5A623"/>
<text x="142.1521739130435" y="201.5" font-size="6" font-weight="bold" fill="#1E293B">2,70 km</text>
<text x="94" y="220.5" font-size="6.5" fill="#334155" text-anchor="end">Sungai Limau</text>
<rect x="100" y="212" width="12.010869565217392" height="11" rx="2" fill="#F5A623"/>
<text x="116.01086956521739" y="220.5" font-size="6" font-weight="bold" fill="#1E293B">0,85 km</text>
<text x="94" y="239.5" font-size="6.5" fill="#334155" text-anchor="end">Sungai Kunyit Laut</text>
<rect x="100" y="231" width="2.119565217391304" height="11" rx="2" fill="#F5A623"/>
<text x="106.1195652173913" y="239.5" font-size="6" font-weight="bold" fill="#1E293B">0,15 km</text>
</svg>