<svg xmlns="http://www.w3.org/2000/svg" viewBox="0 0 340 264" width="100%" height="264pt" style="font-family: 'Liberation Sans', Arial, sans-serif;">
<rect width="340" height="264" fill="#FAFAFA" rx="4"/>
<line x1="100.0" y1="18" x2="100.0" y2="246" stroke="#F1F5F9" stroke-width="0.8" stroke-dasharray="2,2"/>
<text x="100.0" y="259" font-size="5.5" fill="#94A3B8" text-anchor="middle">0</text>
<line x1="148.75" y1="18" x2="148.75" y2="246" stroke="#F1F5F9" stroke-width="0.8" stroke-dasharray="2,2"/>
<text x="148.75" y="259" font-size="5.5" fill="#94A3B8" text-anchor="middle">12</text>
<line x1="197.5" y1="18" x2="197.5" y2="246" stroke="#F1F5F9" stroke-width="0.8" stroke-dasharray="2,2"/>
<text x="197.5" y="259" font-size="5.5" fill="#94A3B8" text-anchor="middle">24</text>
<line x1="246.25" y1="18" x2="246.25" y2="246" stroke="#F1F5F9" stroke-width="0.8" stroke-dasharray="2,2"/>
<text x="246.25" y="259" font-size="5.5" fill="#94A3B8" text-anchor="middle">37</text>
<line x1="295.0" y1="18" x2="295.0" y2="246" stroke="#F1F5F9" stroke-width="0.8" stroke-dasharray="2,2"/>
<text x="295.0" y="259" font-size="5.5" fill="#94A3B8" text-anchor="middle">49</text>
<line x1="100" y1="18" x2="100" y2="246" stroke="#CBD5E1" stroke-width="1"/>
<text x="94" y="30.5" font-size="6.5" fill="#334155" text-anchor="end">Bukit Batu</text>
<rect x="100" y="22" width="169.56521739130437" height="11" rx="2" fill="#0284C7"/>
<text x="273.5652173913044" y="30.5" font-size="6" font-weight="bold" fill="#1E293B">43,06 km²</text>
<text x="94" y="49.5" font-size="6.5" fill="#334155" text-anchor="end">Sungai Kunyit Hulu</text>
<rect x="100" y="41" width="90.92570528484016" height="11" rx="2" fill="#0284C7"/>
<text x="194.92570528484015" y="49.5" font-size="6" font-weight="bold" fill="#1E293B">23,09 km²</text>
<text x="94" y="68.5" font-size="6.5" fill="#334155" text-anchor="end">Semparong Parit Raden</text>
<rect x="100" y="60" width="77.85193562067084" height="11" rx="2" fill="#0284C7"/>
<text x="181.85193562067084" y="68.5" font-size="6" font-weight="bold" fill="#1E293B">19,77 km²</text>
<text x="94" y="87.5" font-size="6.5" fill="#334155" text-anchor="end">Semudun</text>
<rect x="100" y="79" width="38.945657222480264" height="11" rx="2" fill="#0284C7"/>
<text x="142.94565722248026" y="87.5" font-size="6" font-weight="bold" fill="#1E293B">9,89 km²</text>
<text x="94" y="106.5" font-size="6.5" fill="#334155" text-anchor="end">Sungai Dungun</text>
<rect x="100" y="98" width="28.31337466427028" height="11" rx="2" fill="#0284C7"/>
<text x="132.31337466427027" y="106.5" font-size="6" font-weight="bold" fill="#1E293B">7,19 km²</text>
<text x="94" y="125.5" font-size="6.5" fill="#334155" text-anchor="end">Mendalok</text>
<rect x="100" y="117" width="21.107049819261295" height="11" rx="2" fill="#0284C7"/>
<text x="125.10704981926129" y="125.5" font-size="6" font-weight="bold" fill="#1E293B">5,36 km²</text>
<text x="94" y="144.5" font-size="6.5" fill="#334155" text-anchor="end">Sungai Duri Ii</text>
<rect x="100" y="136" width="20.634503927785296" height="11" rx="2" fill="#0284C7"/>
<text x="124.63450392778529" y="144.5" font-size="6" font-weight="bold" fill="#1E293B">5,24 km²</text>
<text x="94" y="163.5" font-size="6.5" fill="#334155" text-anchor="end">Sungai Bundung Laut</text>
<rect x="100" y="155" width="19.019972131908965" height="11" rx="2" fill="#0284C7"/>
<text x="123.01997213190896" y="163.5" font-size="6" font-weight="bold" fill="#1E293B">4,83 km²</text>
<text x="94" y="182.5" font-size="6.5" fill="#334155" text-anchor="end">Sungai Kunyit Dalam</text>
<rect x="100" y="174" width="15.633393242997638" height="11" rx="2" fill="#0284C7"/>
<text x="119.63339324299764" y="182.5" font-size="6" font-weight="bold" fill="#1E293B">3,97 km²</text>
<text x="94" y="201.5" font-size="6.5" fill="#334155" text-anchor="end">Sungai Kunyit Laut</text>
<rect x="100" y="193" width="12.049920232637978" height="11" rx="2" fill="#0284C7"/>
<text x="116.04992023263797" y="201.5" font-size="6" font-weight="bold" fill="#1E293B">3,06 km²</text>
<text x="94" y="220.5" font-size="6.5" fill="#334155" text-anchor="end">Sungai Limau</text>
<rect x="100" y="212" width="8.072658979381652" height="11" rx="2" fill="#0284C7"/>
<text x="112.07265897938166" y="220.5" font-size="6" font-weight="bold" fill="#1E293B">2,05 km²</text>
<text x="94" y="239.5" font-size="6.5" fill="#334155" text-anchor="end">Sungai Duri I</text>
<rect x="100" y="231" width="6.773157777822654" height="11" rx="2" fill="#0284C7"/>
<text x="110.77315777782266" y="239.5" font-size="6" font-weight="bold" fill="#1E293B">1,72 km²</text>
</svg>