<svg xmlns="http://www.w3.org/2000/svg" viewBox="0 0 340 188" width="100%" height="188pt" style="font-family: 'Liberation Sans', Arial, sans-serif;">
<rect width="340" height="188" fill="#FAFAFA" rx="4"/>
<line x1="100.0" y1="18" x2="100.0" y2="170" stroke="#F1F5F9" stroke-width="0.8" stroke-dasharray="2,2"/>
<text x="100.0" y="183" font-size="5.5" fill="#94A3B8" text-anchor="middle">0</text>
<line x1="148.75" y1="18" x2="148.75" y2="170" stroke="#F1F5F9" stroke-width="0.8" stroke-dasharray="2,2"/>
<text x="148.75" y="183" font-size="5.5" fill="#94A3B8" text-anchor="middle">888</text>
<line x1="197.5" y1="18" x2="197.5" y2="170" stroke="#F1F5F9" stroke-width="0.8" stroke-dasharray="2,2"/>
<text x="197.5" y="183" font-size="5.5" fill="#94A3B8" text-anchor="middle">1.777</text>
<line x1="246.25" y1="18" x2="246.25" y2="170" stroke="#F1F5F9" stroke-width="0.8" stroke-dasharray="2,2"/>
<text x="246.25" y="183" font-size="5.5" fill="#94A3B8" text-anchor="middle">2.666</text>
<line x1="295.0" y1="18" x2="295.0" y2="170" stroke="#F1F5F9" stroke-width="0.8" stroke-dasharray="2,2"/>
<text x="295.0" y="183" font-size="5.5" fill="#94A3B8" text-anchor="middle">3.555</text>
<line x1="100" y1="18" x2="100" y2="170" stroke="#CBD5E1" stroke-width="1"/>
<text x="94" y="30.5" font-size="6.5" fill="#334155" text-anchor="end">Pisang</text>
<rect x="100" y="22" width="169.56521739130437" height="11" rx="2" fill="#F5A623"/>
<text x="273.5652173913044" y="30.5" font-size="6" font-weight="bold" fill="#1E293B">3.092 Kuintal</text>
<text x="94" y="49.5" font-size="6.5" fill="#334155" text-anchor="end">Mangga</text>
<rect x="100" y="41" width="53.4689802576073" height="11" rx="2" fill="#F5A623"/>
<text x="157.4689802576073" y="49.5" font-size="6" font-weight="bold" fill="#1E293B">975 Kuintal</text>
<text x="94" y="68.5" font-size="6.5" fill="#334155" text-anchor="end">Jeruk Siam</text>
<rect x="100" y="60" width="51.60442094605996" height="11" rx="2" fill="#F5A623"/>
<text x="155.60442094605997" y="68.5" font-size="6" font-weight="bold" fill="#1E293B">941 Kuintal</text>
<text x="94" y="87.5" font-size="6.5" fill="#334155" text-anchor="end">Sawo</text>
<rect x="100" y="79" width="25.71995050340289" height="11" rx="2" fill="#F5A623"/>
<text x="129.71995050340288" y="87.5" font-size="6" font-weight="bold" fill="#1E293B">469 Kuintal</text>
<text x="94" y="106.5" font-size="6.5" fill="#334155" text-anchor="end">Rambutan</text>
<rect x="100" y="98" width="7.129197367680973" height="11" rx="2" fill="#F5A623"/>
<text x="111.12919736768097" y="106.5" font-size="6" font-weight="bold" fill="#1E293B">130 Kuintal</text>
<text x="94" y="125.5" font-size="6.5" fill="#334155" text-anchor="end">Durian</text>
<rect x="100" y="117" width="5.75819787389617" height="11" rx="2" fill="#F5A623"/>
<text x="109.75819787389617" y="125.5" font-size="6" font-weight="bold" fill="#1E293B">105 Kuintal</text>
<text x="94" y="144.5" font-size="6.5" fill="#334155" text-anchor="end">Sukun</text>
<rect x="100" y="136" width="3.8387985825974464" height="11" rx="2" fill="#F5A623"/>
<text x="107.83879858259745" y="144.5" font-size="6" font-weight="bold" fill="#1E293B">70 Kuintal</text>
<text x="94" y="163.5" font-size="6.5" fill="#334155" text-anchor="end">Lengkeng</text>
<rect x="100" y="155" width="2.303279149558468" height="11" rx="2" fill="#F5A623"/>
<text x="106.30327914955846" y="163.5" font-size="6" font-weight="bold" fill="#1E293B">42 Kuintal</text>
</svg>