<svg xmlns="http://www.w3.org/2000/svg" viewBox="0 0 340 221.0" width="100%" style="font-family: 'Liberation Sans', Arial, sans-serif;">
<rect width="340" height="221.0" rx="4" fill="#FFFFFF" stroke="#E2E8F0" stroke-width="0.8"/>
<rect x="85" y="8" width="11" height="7" rx="2" fill="#0284C7"/>
<text x="100" y="14" font-size="6" font-weight="bold" fill="#334155">Laki-laki/<tspan font-style="italic">Male</tspan></text>
<rect x="180.4" y="8" width="11" height="7" rx="2" fill="#F5A623"/>
<text x="195.4" y="14" font-size="6" font-weight="bold" fill="#334155">Perempuan/<tspan font-style="italic">Female</tspan></text>
<line x1="85.0" y1="26" x2="85.0" y2="206.0" stroke="#F1F5F9" stroke-width="0.8" stroke-dasharray="2,2"/>
<text x="85.0" y="217.0" font-size="5.5" fill="#94A3B8" text-anchor="middle">0</text>
<line x1="135.75" y1="26" x2="135.75" y2="206.0" stroke="#F1F5F9" stroke-width="0.8" stroke-dasharray="2,2"/>
<text x="135.75" y="217.0" font-size="5.5" fill="#94A3B8" text-anchor="middle">2.000</text>
<line x1="186.5" y1="26" x2="186.5" y2="206.0" stroke="#F1F5F9" stroke-width="0.8" stroke-dasharray="2,2"/>
<text x="186.5" y="217.0" font-size="5.5" fill="#94A3B8" text-anchor="middle">4.000</text>
<line x1="237.25" y1="26" x2="237.25" y2="206.0" stroke="#F1F5F9" stroke-width="0.8" stroke-dasharray="2,2"/>
<text x="237.25" y="217.0" font-size="5.5" fill="#94A3B8" text-anchor="middle">6.000</text>
<line x1="288.0" y1="26" x2="288.0" y2="206.0" stroke="#F1F5F9" stroke-width="0.8" stroke-dasharray="2,2"/>
<text x="288.0" y="217.0" font-size="5.5" fill="#94A3B8" text-anchor="middle">8.000</text>
<line x1="85" y1="26" x2="85" y2="206.0" stroke="#CBD5E1" stroke-width="1"/>
<text x="79" y="37.5" font-size="6.5" fill="#334155" text-anchor="end">Terusan</text>
<rect x="85" y="29.0" width="165.724125" height="5.5" rx="1.5" fill="#0284C7"/>
<text x="253.724125" y="33.5" font-size="5.5" fill="#475569">6.531</text>
<rect x="85" y="36.0" width="167.11975" height="5.5" rx="1.5" fill="#F5A623"/>
<text x="255.11975" y="40.5" font-size="5.5" fill="#475569">6.586</text>
<text x="79" y="60.0" font-size="6.5" fill="#334155" text-anchor="end">Pasir</text>
<rect x="85" y="51.5" width="119.36399999999999" height="5.5" rx="1.5" fill="#0284C7"/>
<text x="207.36399999999998" y="56.0" font-size="5.5" fill="#475569">4.704</text>
<rect x="85" y="58.5" width="115.38012499999999" height="5.5" rx="1.5" fill="#F5A623"/>
<text x="203.380125" y="63.0" font-size="5.5" fill="#475569">4.547</text>
<text x="79" y="82.5" font-size="6.5" fill="#334155" text-anchor="end">Tengah</text>
<rect x="85" y="74.0" width="83.839" height="5.5" rx="1.5" fill="#0284C7"/>
<text x="171.839" y="78.5" font-size="5.5" fill="#475569">3.304</text>
<rect x="85" y="81.0" width="81.022375" height="5.5" rx="1.5" fill="#F5A623"/>
<text x="169.022375" y="85.5" font-size="5.5" fill="#475569">3.193</text>
<text x="79" y="105.0" font-size="6.5" fill="#334155" text-anchor="end">Kuala Secapah</text>
<rect x="85" y="96.5" width="68.740875" height="5.5" rx="1.5" fill="#0284C7"/>
<text x="156.74087500000002" y="101.0" font-size="5.5" fill="#475569">2.709</text>
<rect x="85" y="103.5" width="65.82275" height="5.5" rx="1.5" fill="#F5A623"/>
<text x="153.82274999999998" y="108.0" font-size="5.5" fill="#475569">2.594</text>
<text x="79" y="127.5" font-size="6.5" fill="#334155" text-anchor="end">Malikian</text>
<rect x="85" y="119.0" width="53.211375" height="5.5" rx="1.5" fill="#0284C7"/>
<text x="141.211375" y="123.5" font-size="5.5" fill="#475569">2.097</text>
<rect x="85" y="126.0" width="52.52625" height="5.5" rx="1.5" fill="#F5A623"/>
<text x="140.52625" y="130.5" font-size="5.5" fill="#475569">2.070</text>
<text x="79" y="150.0" font-size="6.5" fill="#334155" text-anchor="end">Sengkubang</text>
<rect x="85" y="141.5" width="52.22174999999999" height="5.5" rx="1.5" fill="#0284C7"/>
<text x="140.22175" y="146.0" font-size="5.5" fill="#475569">2.058</text>
<rect x="85" y="148.5" width="50.826125000000005" height="5.5" rx="1.5" fill="#F5A623"/>
<text x="138.826125" y="153.0" font-size="5.5" fill="#475569">2.003</text>
<text x="79" y="172.5" font-size="6.5" fill="#334155" text-anchor="end">Penibung</text>
<rect x="85" y="164.0" width="31.10975" height="5.5" rx="1.5" fill="#0284C7"/>
<text x="119.10974999999999" y="168.5" font-size="5.5" fill="#475569">1.226</text>
<rect x="85" y="171.0" width="29.714125000000003" height="5.5" rx="1.5" fill="#F5A623"/>
<text x="117.714125" y="175.5" font-size="5.5" fill="#475569">1.171</text>
<text x="79" y="195.0" font-size="6.5" fill="#334155" text-anchor="end">Tanjung</text>
<rect x="85" y="186.5" width="15.9355" height="5.5" rx="1.5" fill="#0284C7"/>
<text x="103.9355" y="191.0" font-size="5.5" fill="#475569">628</text>
<rect x="85" y="193.5" width="15.402625" height="5.5" rx="1.5" fill="#F5A623"/>
<text x="103.402625" y="198.0" font-size="5.5" fill="#475569">607</text>
</svg>