<svg xmlns="http://www.w3.org/2000/svg" viewBox="0 0 340 188" width="100%" height="188pt" style="font-family: 'Liberation Sans', Arial, sans-serif;">
<rect width="340" height="188" fill="#FAFAFA" rx="4"/>
<line x1="100.0" y1="18" x2="100.0" y2="170" stroke="#F1F5F9" stroke-width="0.8" stroke-dasharray="2,2"/>
<text x="100.0" y="183" font-size="5.5" fill="#94A3B8" text-anchor="middle">0</text>
<line x1="148.75" y1="18" x2="148.75" y2="170" stroke="#F1F5F9" stroke-width="0.8" stroke-dasharray="2,2"/>
<text x="148.75" y="183" font-size="5.5" fill="#94A3B8" text-anchor="middle">15</text>
<line x1="197.5" y1="18" x2="197.5" y2="170" stroke="#F1F5F9" stroke-width="0.8" stroke-dasharray="2,2"/>
<text x="197.5" y="183" font-size="5.5" fill="#94A3B8" text-anchor="middle">31</text>
<line x1="246.25" y1="18" x2="246.25" y2="170" stroke="#F1F5F9" stroke-width="0.8" stroke-dasharray="2,2"/>
<text x="246.25" y="183" font-size="5.5" fill="#94A3B8" text-anchor="middle">47</text>
<line x1="295.0" y1="18" x2="295.0" y2="170" stroke="#F1F5F9" stroke-width="0.8" stroke-dasharray="2,2"/>
<text x="295.0" y="183" font-size="5.5" fill="#94A3B8" text-anchor="middle">63</text>
<line x1="100" y1="18" x2="100" y2="170" stroke="#CBD5E1" stroke-width="1"/>
<text x="94" y="30.5" font-size="6.5" fill="#334155" text-anchor="end">Pasir</text>
<rect x="100" y="22" width="169.56521739130437" height="11" rx="2" fill="#0284C7"/>
<text x="273.5652173913044" y="30.5" font-size="6" font-weight="bold" fill="#1E293B">54,91 km²</text>
<text x="94" y="49.5" font-size="6.5" fill="#334155" text-anchor="end">Malikian</text>
<rect x="100" y="41" width="94.52542896280872" height="11" rx="2" fill="#0284C7"/>
<text x="198.52542896280872" y="49.5" font-size="6" font-weight="bold" fill="#1E293B">30,61 km²</text>
<text x="94" y="68.5" font-size="6.5" fill="#334155" text-anchor="end">Sengkubang</text>
<rect x="100" y="60" width="76.42941414013447" height="11" rx="2" fill="#0284C7"/>
<text x="180.42941414013447" y="68.5" font-size="6" font-weight="bold" fill="#1E293B">24,75 km²</text>
<text x="94" y="87.5" font-size="6.5" fill="#334155" text-anchor="end">Penibung</text>
<rect x="100" y="79" width="36.284671359457775" height="11" rx="2" fill="#0284C7"/>
<text x="140.28467135945777" y="87.5" font-size="6" font-weight="bold" fill="#1E293B">11,75 km²</text>
<text x="94" y="106.5" font-size="6.5" fill="#334155" text-anchor="end">Tanjung</text>
<rect x="100" y="98" width="30.139437656877263" height="11" rx="2" fill="#0284C7"/>
<text x="134.13943765687725" y="106.5" font-size="6" font-weight="bold" fill="#1E293B">9,76 km²</text>
<text x="94" y="125.5" font-size="6.5" fill="#334155" text-anchor="end">Kuala Secapah</text>
<rect x="100" y="117" width="29.98503480002851" height="11" rx="2" fill="#0284C7"/>
<text x="133.9850348000285" y="125.5" font-size="6" font-weight="bold" fill="#1E293B">9,71 km²</text>
<text x="94" y="144.5" font-size="6.5" fill="#334155" text-anchor="end">Tengah</text>
<rect x="100" y="136" width="25.75439652237258" height="11" rx="2" fill="#0284C7"/>
<text x="129.7543965223726" y="144.5" font-size="6" font-weight="bold" fill="#1E293B">8,34 km²</text>
<text x="94" y="163.5" font-size="6.5" fill="#334155" text-anchor="end">Terusan</text>
<rect x="100" y="155" width="15.131479971178136" height="11" rx="2" fill="#0284C7"/>
<text x="119.13147997117814" y="163.5" font-size="6" font-weight="bold" fill="#1E293B">4,90 km²</text>
</svg>