<svg xmlns="http://www.w3.org/2000/svg" viewBox="0 0 340 182" width="100%" style="font-family: 'Liberation Sans', Arial, sans-serif;">
<rect width="340" height="182" rx="4" fill="#FFFFFF" stroke="#E2E8F0" stroke-width="0.8"/>
<line x1="85.0" y1="14" x2="85.0" y2="166" stroke="#F1F5F9" stroke-width="0.8" stroke-dasharray="2,2"/>
<text x="85.0" y="177" font-size="5.5" fill="#94A3B8" text-anchor="middle">0</text>
<line x1="136.75" y1="14" x2="136.75" y2="166" stroke="#F1F5F9" stroke-width="0.8" stroke-dasharray="2,2"/>
<text x="136.75" y="177" font-size="5.5" fill="#94A3B8" text-anchor="middle">17</text>
<line x1="188.5" y1="14" x2="188.5" y2="166" stroke="#F1F5F9" stroke-width="0.8" stroke-dasharray="2,2"/>
<text x="188.5" y="177" font-size="5.5" fill="#94A3B8" text-anchor="middle">35</text>
<line x1="240.25" y1="14" x2="240.25" y2="166" stroke="#F1F5F9" stroke-width="0.8" stroke-dasharray="2,2"/>
<text x="240.25" y="177" font-size="5.5" fill="#94A3B8" text-anchor="middle">52</text>
<line x1="292.0" y1="14" x2="292.0" y2="166" stroke="#F1F5F9" stroke-width="0.8" stroke-dasharray="2,2"/>
<text x="292.0" y="177" font-size="5.5" fill="#94A3B8" text-anchor="middle">70</text>
<line x1="85" y1="14" x2="85" y2="166" stroke="#CBD5E1" stroke-width="1"/>
<text x="79" y="26.25" font-size="6.5" fill="#334155" text-anchor="end">Pasir</text>
<rect x="85" y="18.25" width="162.37671428571429" height="10.5" rx="2.5" fill="#0284C7"/>
<text x="250.87671428571429" y="26.25" font-size="6.5" font-weight="bold" fill="#0F172A">54,91</text>
<text x="79" y="45.25" font-size="6.5" fill="#334155" text-anchor="end">Malikian</text>
<rect x="85" y="37.25" width="90.51814285714286" height="10.5" rx="2.5" fill="#0284C7"/>
<text x="179.01814285714286" y="45.25" font-size="6.5" font-weight="bold" fill="#0F172A">30,61</text>
<text x="79" y="64.25" font-size="6.5" fill="#334155" text-anchor="end">Sengkubang</text>
<rect x="85" y="56.25" width="73.18928571428572" height="10.5" rx="2.5" fill="#0284C7"/>
<text x="161.68928571428572" y="64.25" font-size="6.5" font-weight="bold" fill="#0F172A">24,75</text>
<text x="79" y="83.25" font-size="6.5" fill="#334155" text-anchor="end">Penibung</text>
<rect x="85" y="75.25" width="34.74642857142857" height="10.5" rx="2.5" fill="#0284C7"/>
<text x="123.24642857142857" y="83.25" font-size="6.5" font-weight="bold" fill="#0F172A">11,75</text>
<text x="79" y="102.25" font-size="6.5" fill="#334155" text-anchor="end">Tanjung</text>
<rect x="85" y="94.25" width="28.861714285714285" height="10.5" rx="2.5" fill="#0284C7"/>
<text x="117.36171428571429" y="102.25" font-size="6.5" font-weight="bold" fill="#0F172A">9,76</text>
<text x="79" y="121.25" font-size="6.5" fill="#334155" text-anchor="end">Kuala Secapah</text>
<rect x="85" y="113.25" width="28.713857142857147" height="10.5" rx="2.5" fill="#0284C7"/>
<text x="117.21385714285715" y="121.25" font-size="6.5" font-weight="bold" fill="#0F172A">9,71</text>
<text x="79" y="140.25" font-size="6.5" fill="#334155" text-anchor="end">Tengah</text>
<rect x="85" y="132.25" width="24.66257142857143" height="10.5" rx="2.5" fill="#0284C7"/>
<text x="113.16257142857143" y="140.25" font-size="6.5" font-weight="bold" fill="#0F172A">8,34</text>
<text x="79" y="159.25" font-size="6.5" fill="#334155" text-anchor="end">Terusan</text>
<rect x="85" y="151.25" width="14.490000000000002" height="10.5" rx="2.5" fill="#0284C7"/>
<text x="102.99000000000001" y="159.25" font-size="6.5" font-weight="bold" fill="#0F172A">4,90</text>
</svg>