<svg xmlns="http://www.w3.org/2000/svg" viewBox="0 0 340 163" width="100%" style="font-family: 'Liberation Sans', Arial, sans-serif;">
<rect width="340" height="163" rx="4" fill="#FFFFFF" stroke="#E2E8F0" stroke-width="0.8"/>
<line x1="85.0" y1="14" x2="85.0" y2="147" stroke="#F1F5F9" stroke-width="0.8" stroke-dasharray="2,2"/>
<text x="85.0" y="158" font-size="5.5" fill="#94A3B8" text-anchor="middle">0</text>
<line x1="136.75" y1="14" x2="136.75" y2="147" stroke="#F1F5F9" stroke-width="0.8" stroke-dasharray="2,2"/>
<text x="136.75" y="158" font-size="5.5" fill="#94A3B8" text-anchor="middle">2</text>
<line x1="188.5" y1="14" x2="188.5" y2="147" stroke="#F1F5F9" stroke-width="0.8" stroke-dasharray="2,2"/>
<text x="188.5" y="158" font-size="5.5" fill="#94A3B8" text-anchor="middle">5</text>
<line x1="240.25" y1="14" x2="240.25" y2="147" stroke="#F1F5F9" stroke-width="0.8" stroke-dasharray="2,2"/>
<text x="240.25" y="158" font-size="5.5" fill="#94A3B8" text-anchor="middle">7</text>
<line x1="292.0" y1="14" x2="292.0" y2="147" stroke="#F1F5F9" stroke-width="0.8" stroke-dasharray="2,2"/>
<text x="292.0" y="158" font-size="5.5" fill="#94A3B8" text-anchor="middle">10</text>
<line x1="85" y1="14" x2="85" y2="147" stroke="#CBD5E1" stroke-width="1"/>
<text x="79" y="26.25" font-size="6.5" fill="#334155" text-anchor="end">Malikian</text>
<rect x="85" y="18.25" width="165.60000000000002" height="10.5" rx="2.5" fill="#F5A623"/>
<text x="254.10000000000002" y="26.25" font-size="6.5" font-weight="bold" fill="#0F172A">8</text>
<text x="79" y="45.25" font-size="6.5" fill="#334155" text-anchor="end">Sengkubang</text>
<rect x="85" y="37.25" width="146.97" height="10.5" rx="2.5" fill="#F5A623"/>
<text x="235.47" y="45.25" font-size="6.5" font-weight="bold" fill="#0F172A">7,10</text>
<text x="79" y="64.25" font-size="6.5" fill="#334155" text-anchor="end">Tanjung</text>
<rect x="85" y="56.25" width="103.5" height="10.5" rx="2.5" fill="#F5A623"/>
<text x="192.0" y="64.25" font-size="6.5" font-weight="bold" fill="#0F172A">5</text>
<text x="79" y="83.25" font-size="6.5" fill="#334155" text-anchor="end">Penibung</text>
<rect x="85" y="75.25" width="103.5" height="10.5" rx="2.5" fill="#F5A623"/>
<text x="192.0" y="83.25" font-size="6.5" font-weight="bold" fill="#0F172A">5</text>
<text x="79" y="102.25" font-size="6.5" fill="#334155" text-anchor="end">Kuala Secapah</text>
<rect x="85" y="94.25" width="93.15" height="10.5" rx="2.5" fill="#F5A623"/>
<text x="181.65" y="102.25" font-size="6.5" font-weight="bold" fill="#0F172A">4,50</text>
<text x="79" y="121.25" font-size="6.5" fill="#334155" text-anchor="end">Pasir</text>
<rect x="85" y="113.25" width="74.52" height="10.5" rx="2.5" fill="#F5A623"/>
<text x="163.01999999999998" y="121.25" font-size="6.5" font-weight="bold" fill="#0F172A">3,60</text>
<text x="79" y="140.25" font-size="6.5" fill="#334155" text-anchor="end">Tengah</text>
<rect x="85" y="132.25" width="55.89" height="10.5" rx="2.5" fill="#F5A623"/>
<text x="144.39" y="140.25" font-size="6.5" font-weight="bold" fill="#0F172A">2,70</text>
</svg>